<svg xmlns="http://www.w3.org/2000/svg" width="1em" height="1em" viewBox="0 0 24 24"><path fill="black" d="M20.68 7.014a3.85 3.85 0 0 0-.92-1.22l-3-2.72a4.15 4.15 0 0 0-2.39-1.07H8.21A5 5 0 0 0 3 6.864v10.3a5 5 0 0 0 3.31 4.53a4.738 4.738 0 0 0 1.92.3h7.56a4.998 4.998 0 0 0 5.21-4.86v-8.57a3.75 3.75 0 0 0-.32-1.55m-13-.4h3.26a1 1 0 0 1 0 2H7.68a1 1 0 1 1 0-2m8.7 10.71h-8.7a1 1 0 1 1 0-2h8.7a1 1 0 0 1 0 1.98zm0-4.35h-8.7a1 1 0 1 1 0-2h8.7a1 1 0 1 1 0 2m-.32-5.57a1.08 1.08 0 0 1-1.09-1.08v-2.65c.66.16 3.23 2.8 3.79 3.24a2 2 0 0 1 .42.49z"/></svg>